<svg viewBox="0 0 61 96" fill="none" xmlns="http://www.w3.org/2000/svg">
<path fill-rule="evenodd" clip-rule="evenodd" d="M58.3088 71.991C55.3601 74.681 46.9809 83.1799 43.9899 85.8435C43.1364 86.6032 41.8127 88.016 40.3167 88.3121C46.4255 56.6693 33.6191 19.9793 1.96685 1.40034C1.21897 0.961353 0.462109 1.15472 0.241816 1.86711C0.108516 2.29818 -0.00283827 3.24631 4.91832 6.67736C31.0641 25.8728 44.3597 58.7195 37.0145 87.4326C35.8001 86.507 34.9795 85.1151 34.3392 84.2513C29.8891 78.2595 25.6075 72.1928 21.243 66.1655C20.1141 64.6072 19.6878 67.1842 19.5808 67.7823C19.2834 69.4433 19.8294 71.3802 20.9436 72.9184C23.7217 76.7553 26.1674 80.402 28.9455 84.2389C31.1726 87.3144 32.7559 90.252 35.7651 92.9671C38.0913 95.0659 38.6075 94.973 41.6015 93.1542C45.6921 90.6686 49.236 87.0439 52.5768 83.9994C53.8938 82.7985 60.2284 76.3674 60.0263 74.9638C59.9743 74.5976 59.2507 71.1326 58.3088 71.991Z" fill="black"/>
</svg>
