<svg viewBox="0 0 93 80" fill="none" xmlns="http://www.w3.org/2000/svg">
<path d="M50 1.82916C51.9648 27.5717 65.7313 40.666 91 40.666V38.259C67.2388 38.259 54.5713 26.21 52.698 1.66602L50 1.82916Z" fill="black" stroke="black" stroke-width="3"/>
<path d="M50 77.5029C51.9648 51.7603 65.7313 38.666 91 38.666V41.073C67.2388 41.073 54.5713 53.122 52.698 77.666L50 77.5029Z" fill="black" stroke="black" stroke-width="3"/>
<path d="M2 1.82916C3.96479 27.5717 17.7313 40.666 43 40.666V38.259C19.2388 38.259 6.5713 26.21 4.69799 1.66602L2 1.82916Z" fill="black" stroke="black" stroke-width="3"/>
<path d="M2 77.5029C3.96479 51.7603 17.7313 38.666 43 38.666V41.073C19.2388 41.073 6.5713 53.122 4.69799 77.666L2 77.5029Z" fill="black" stroke="black" stroke-width="3"/>
</svg>
